<svg width="94" height="82" viewBox="0 0 94 82" fill="none" xmlns="http://www.w3.org/2000/svg">
<g clip-path="url(#clip0_4099_7406)">
<path d="M12.7367 52.7744C10.0695 49.3137 11.254 38.8109 4.85633 41.4871C0.718039 43.2184 0.286525 52.9415 2.22851 59.0587C6.22936 71.6594 12.5424 82.0997 12.543 82.1L24.3927 72.1801L19.8637 57.6705C19.8637 57.6705 15.4039 56.2348 12.7367 52.7744Z" fill="#3B3B66"/>
<path d="M12.5449 82.1002L17.5298 68.6314L21.8038 55.1971L27.7665 39.9071L36.7903 29.3247L72.5395 32.5285C72.5395 32.5285 82.466 57.4678 87.5674 65.6077C92.6685 73.7479 93.8403 80.4507 93.8403 80.4507V82.0999L12.5449 82.1002Z" fill="white"/>
<path d="M93.8578 80.4316C93.8578 80.4316 92.6438 73.2317 88.2008 66.5989H85.3102L66.6289 69.8492C66.6289 69.8492 69.3784 71.9108 71.7745 76.9958C72.6605 78.8763 73.2178 80.6424 73.5695 82.1H93.8582L93.8578 80.4316Z" fill="#3B3B66"/>
<path d="M62.096 37.7119C62.096 37.7119 76.9858 39.7735 76.9858 51.112C76.9858 62.4506 68.0933 65.1306 68.0933 65.1306L61.3721 65.9554C61.3721 65.9554 58.6836 69.082 58.6836 74.8886C58.6836 80.6952 59.0973 81.5583 59.0973 81.5583L66.8526 77.6414C66.8526 77.6414 65.7496 76.4005 68.1968 74.1328C70.644 71.8652 77.9167 70.6284 77.9167 70.6284L88.927 67.9934C88.927 67.9934 90.2595 60.5957 90.118 52.2464C90.0251 46.7623 88.7611 38.2414 88.7611 38.2414L78.1233 31.0125L62.3561 34.1093L62.096 37.7125V37.7119Z" fill="#B3B5C9"/>
<path d="M78.0116 31.5561L88.2847 38.5374C88.4817 39.9112 89.5209 47.3558 89.6039 52.2546C89.7259 59.473 88.7261 66.0528 88.4762 67.5739L77.8128 70.1258C77.3227 70.2102 70.3406 71.446 67.8465 73.7574C66.0097 75.4592 65.9714 76.7258 66.1743 77.4091L59.4582 80.8012C59.3478 80.0512 59.1977 78.3873 59.1977 74.8887C59.1977 72.0016 59.8945 69.818 60.4789 68.4947C60.9526 67.4222 61.4314 66.7249 61.6459 66.4379L68.156 65.639C68.1851 65.6356 68.2139 65.6295 68.242 65.6209C68.3377 65.5922 70.6073 64.8915 72.892 62.7462C74.9941 60.7724 77.4999 57.1521 77.4999 51.1117C77.4999 46.2724 74.8299 42.3278 69.7782 39.7052C66.7586 38.1376 63.7778 37.4881 62.6423 37.2824L62.8407 34.5354L78.0116 31.5561ZM78.1233 31.0115L62.3561 34.1083L62.0959 37.7116C62.0959 37.7116 76.9858 39.7732 76.9858 51.1117C76.9858 62.4503 68.0933 65.1303 68.0933 65.1303L61.3721 65.9551C61.3721 65.9551 58.6836 69.0817 58.6836 74.8883C58.6836 80.6949 59.0973 81.558 59.0973 81.558L66.8525 77.6411C66.8525 77.6411 65.7496 76.4002 68.1968 74.1325C70.644 71.8649 77.9167 70.6281 77.9167 70.6281L88.927 67.9931C88.927 67.9931 90.2595 60.5954 90.1183 52.2461C90.0254 46.762 88.7614 38.2411 88.7614 38.2411L78.1237 31.0122L78.1233 31.0115Z" fill="#82889E"/>
<path d="M27.7648 31.5924L25.6946 37.3262C25.6946 37.3262 24.0765 43.618 22.2154 47.6722C20.3543 51.7264 18.1484 56.9806 18.1484 56.9806L18.7688 74.6786L25.3865 63.5464C25.3865 63.5464 23.7043 50.2282 26.3928 44.6621C29.0813 39.096 35.8628 34.7757 35.8628 34.7757L33.0917 30.8711L27.7648 31.5927V31.5924Z" fill="#B3B5C9"/>
<path d="M32.8521 31.4203L35.1382 34.6412C33.5555 35.7219 28.2775 39.5783 25.9297 44.4396C23.3437 49.7935 24.6571 61.7713 24.8552 63.4349L19.2216 72.912L18.6663 57.0751C18.9851 56.3186 20.9894 51.5749 22.6833 47.8856C24.5036 43.9202 26.0607 37.9653 26.1868 37.4771L28.1432 32.0582L32.8521 31.4203ZM33.0917 30.8706L27.7648 31.5922L25.6946 37.3261C25.6946 37.3261 24.0765 43.6178 22.2154 47.6721C20.3543 51.7263 18.1484 56.9804 18.1484 56.9804L18.7688 74.6784L25.3865 63.5462C25.3865 63.5462 23.7043 50.2281 26.3928 44.662C29.0813 39.0959 35.8628 34.7755 35.8628 34.7755L33.0917 30.8706Z" fill="#82889E"/>
<path d="M38.6543 10.9468L39.0875 14.9969C39.0875 14.9969 37.6398 16.0277 37.4849 17.7285C37.3296 19.4293 39.0875 21.3362 39.0875 21.3362L32.2114 23.1402L30.7637 17.9349L34.0208 14.0351L38.6543 10.9471V10.9468Z" fill="#82889E"/>
<path d="M38.6546 10.9468C38.6546 10.9468 32.2802 16.5429 32.4873 19.704C32.6943 22.8651 36.3476 21.5938 36.3476 21.5938L40.4783 19.8574L42.9296 31.7987L36.9683 40.9827C36.9683 40.9827 34.6246 34.1777 32.0499 32.7666C30.3403 31.8298 27.7656 31.5923 27.7656 31.5923V20.8722C27.7656 20.8722 29.7991 16.7148 32.005 14.825C34.2109 12.9353 38.6546 10.9468 38.6546 10.9468Z" fill="#B3B5C9"/>
<path d="M35.9541 12.8693C35.6775 13.1635 35.3917 13.4768 35.1062 13.8035C32.9332 16.2901 31.8799 18.2868 31.9749 19.7375C32.0839 21.4035 33.1131 22.3591 34.7991 22.3591C35.6991 22.3591 36.4847 22.0892 36.5176 22.0779C36.5279 22.0745 36.5378 22.0704 36.5477 22.0663L40.1006 20.5726L42.384 31.6962L37.0944 39.8449C36.3253 37.8664 34.4268 33.4848 32.2974 32.3177C30.9446 31.5763 29.1263 31.2544 28.2794 31.1379V20.9931C28.6074 20.346 30.4305 16.8498 32.3399 15.2139C33.292 14.3983 34.6938 13.554 35.9541 12.8693ZM38.6549 10.9468C38.6549 10.9468 34.2109 12.9353 32.005 14.825C29.7991 16.7148 27.7656 20.8722 27.7656 20.8722V31.5923C27.7656 31.5923 30.3403 31.8294 32.0499 32.7666C34.6246 34.1777 36.9683 40.9827 36.9683 40.9827L42.93 31.7987L40.4787 19.8574L36.3479 21.5938C36.3479 21.5938 35.622 21.8463 34.7987 21.8463C33.7753 21.8463 32.6021 21.4558 32.4876 19.704C32.2806 16.5429 38.6549 10.9468 38.6549 10.9468Z" fill="#82889E"/>
<path d="M38.4191 38.7472C37.3371 35.6241 35.2659 30.4909 32.5565 27.7442C30.6018 25.7625 28.9546 24.6754 27.7656 24.0747V31.5924C27.7656 31.5924 30.3403 31.8295 32.0499 32.7667C34.6246 34.1778 36.9683 40.9828 36.9683 40.9828L38.4191 38.7472Z" fill="#A2A5BC"/>
<path d="M28.2801 24.9419C29.5496 25.6959 30.8616 26.7561 32.1904 28.1033C34.7984 30.7471 36.8278 35.7652 37.8515 38.6789L37.0944 39.8454C36.8305 39.1675 36.4329 38.204 35.938 37.181C34.686 34.5912 33.4613 32.955 32.2977 32.3174C30.9449 31.576 29.1267 31.2542 28.2797 31.1376V24.9422M27.7656 24.0747V31.5924C27.7656 31.5924 30.3403 31.8295 32.0499 32.7667C34.6246 34.1778 36.9683 40.9828 36.9683 40.9828L38.4191 38.7476C37.3374 35.6244 35.2659 30.4912 32.5565 27.7446C30.6018 25.7629 28.9546 24.6754 27.7656 24.0747Z" fill="#82889E"/>
<path d="M40.1202 24.027L40.3955 30.8709L39.5801 36.9594C39.5801 36.9594 43.0565 45.21 44.7175 45.21C46.3784 45.21 49.5837 42.6215 51.4966 41.3847C53.4094 40.1479 57.7986 37.7456 57.7986 37.7456L64.1116 23.9132L62.8191 21.594L40.1202 24.027Z" fill="#A2A5BC"/>
<path d="M62.5353 22.1398L63.5365 23.9363L57.4014 37.3788C56.6038 37.8172 52.9471 39.8364 51.2169 40.955C50.7717 41.243 50.261 41.6004 49.7202 41.979C48.0812 43.1263 45.8358 44.698 44.7178 44.698C44.6876 44.697 43.9552 44.6314 41.9748 40.8344C41.0748 39.1087 40.3135 37.3651 40.1086 36.8885L40.9055 30.9394C40.9092 30.91 40.9106 30.8806 40.9096 30.8509L40.6536 24.486L62.5353 22.1405M62.8191 21.5945L40.1202 24.0278L40.3955 30.8718L39.5801 36.9603C39.5801 36.9603 43.0565 45.2108 44.7175 45.2108C46.3784 45.2108 49.5837 42.6224 51.4966 41.3855C53.4094 40.1487 57.7986 37.7464 57.7986 37.7464L64.1116 23.9141L62.8191 21.5945Z" fill="#82889E"/>
<path d="M58.9506 16.851L60.0278 11.9976L62.5994 14.6189L64.6219 13.2857L57.4377 0.68335L45.0951 9.98283L45.4509 11.9105L48.3228 11.4633L46.4699 16.4075C45.9774 16.661 45.5051 16.9142 45.0691 17.1612C41.5536 19.1542 39.0234 20.4693 39.0234 20.4693L39.9677 24.0434L42.139 30.5372L41.7253 36.2064L44.5515 40.9823L52.0631 36.6185C52.0631 36.6185 52.5502 31.7637 54.8592 27.9842C56.0907 25.9684 60.9981 24.5631 60.9981 24.5631L63.3253 21.0651L61.0166 19.1125C60.2753 18.2618 59.5846 17.5115 58.9499 16.8507L58.9506 16.851Z" fill="#B3B5C9"/>
<path d="M57.28 1.44458L63.9375 13.1228L62.67 13.9581L60.3952 11.6396C60.2972 11.5395 60.1642 11.4855 60.0278 11.4855C59.9808 11.4855 59.9332 11.492 59.8866 11.5053C59.7049 11.5569 59.5665 11.7038 59.526 11.8873L58.4488 16.7407C58.4118 16.9077 58.4608 17.0823 58.5794 17.206C59.2559 17.9102 59.9455 18.6649 60.629 19.4494C60.6461 19.4689 60.6646 19.4873 60.6845 19.5041L62.645 21.1618L60.6732 24.1258C59.7361 24.4124 55.6143 25.7648 54.4205 27.7181C52.3586 31.0927 51.72 35.2235 51.5826 36.3052L44.7349 40.2832L42.25 36.0841L42.6521 30.5744C42.6569 30.5071 42.6486 30.4394 42.627 30.3752L40.4609 23.8969L39.625 20.7327C40.4496 20.2974 42.6027 19.1491 45.3234 17.6068C45.7323 17.3748 46.1977 17.1247 46.706 16.863C46.8195 16.8046 46.9072 16.7062 46.9518 16.5869L48.8047 11.6426C48.8684 11.4722 48.8369 11.2805 48.7214 11.1394C48.623 11.0191 48.476 10.9508 48.3231 10.9508C48.2967 10.9508 48.27 10.9528 48.2436 10.9569L45.866 11.3273L45.6583 10.2015L57.28 1.44458ZM57.4377 0.68335L45.0951 9.98283L45.4509 11.9105L48.3228 11.4633L46.4699 16.4075C45.9774 16.661 45.5051 16.9142 45.0691 17.1612C41.5532 19.1542 39.0234 20.4693 39.0234 20.4693L39.9677 24.0434L42.139 30.5372L41.7253 36.2064L44.5515 40.9823L52.0631 36.6185C52.0631 36.6185 52.5502 31.7637 54.8592 27.9842C56.091 25.9684 60.9984 24.5631 60.9984 24.5631L63.3257 21.0651L61.017 19.1125C60.2756 18.2618 59.585 17.5115 58.9502 16.8507L60.0275 11.9973L62.5991 14.6186L64.6216 13.2854L57.4377 0.68335Z" fill="#82889E"/>
<path d="M49.9327 18.3965L43.1035 26.0081L46.1011 34.1091L52.6174 27.4759L49.9327 18.3965Z" fill="#FFC431"/>
<path d="M49.9311 18.3964L52.6158 27.4758L46.0995 34.109L43.1019 26.008L49.9311 18.3964ZM49.9311 17.8839C49.7864 17.8839 49.6466 17.9447 49.5479 18.0547L42.7187 25.6664C42.5919 25.8078 42.5539 26.0074 42.6197 26.1854L45.6173 34.2863C45.6783 34.451 45.8199 34.5733 45.9923 34.6102C46.0279 34.6177 46.0639 34.6215 46.0999 34.6215C46.2366 34.6215 46.3696 34.5671 46.4673 34.4674L52.9835 27.8342C53.1138 27.7017 53.1621 27.509 53.1093 27.3306L50.4246 18.2512C50.3718 18.0728 50.2265 17.9368 50.0445 17.8962C50.0072 17.8876 49.9691 17.8835 49.9314 17.8835L49.9311 17.8839Z" fill="#7A7E99"/>
<path d="M49.9321 18.3965L47.1309 26.5053L52.6168 27.4759L49.9321 18.3965Z" fill="#F2B42A"/>
<path d="M47.1299 26.5051L46.0996 34.1089L52.6159 27.4758L47.1299 26.5051Z" fill="#DD8E1B"/>
<path d="M43.1035 26.0081L47.1314 26.5053L49.9327 18.3965L43.1035 26.0081Z" fill="#FFD983"/>
<path d="M61.0169 19.1128C61.0169 19.1128 57.8901 26.4385 56.7357 31.3862C55.5813 36.3339 56.7357 43.1371 56.7357 43.1371C56.7357 43.1371 63.3363 35.5094 73.6765 35.097C84.0167 34.6846 88.6698 40.4571 88.6698 40.4571C88.6698 40.4571 92.0822 38.3955 92.0822 28.0877C92.0822 17.78 85.9813 13.9663 85.9813 13.9663L81.4318 19.6356L81.1867 23.6266C81.1867 23.6266 78.649 25.7244 72.6517 25.2092C66.6544 24.694 61.0169 19.1132 61.0169 19.1132V19.1128Z" fill="#B3B5C9"/>
<path d="M86.0756 14.669C87.3599 15.6824 91.5681 19.6477 91.5681 28.0876C91.5681 36.0074 89.5126 38.9116 88.7147 39.7401C87.4798 38.4585 83.042 34.5635 74.726 34.5635C74.3736 34.5635 74.0138 34.5707 73.6559 34.5851C65.0939 34.9264 59.1209 40.0179 57.0952 42.0163C56.8313 39.9421 56.3817 35.1645 57.2365 31.5022C58.1646 27.5249 60.413 21.9164 61.2068 19.9918C62.7916 21.4155 67.5239 25.2825 72.6075 25.7192C73.2512 25.7745 73.8869 25.8025 74.4967 25.8025C79.3033 25.8025 81.4266 24.0932 81.5147 24.0204C81.624 23.9298 81.6909 23.7986 81.6998 23.6572L81.9349 19.8285L86.0756 14.669ZM85.9813 13.9658L81.4318 19.6351L81.1867 23.6261C81.1867 23.6261 79.1734 25.29 74.497 25.29C73.9222 25.29 73.308 25.2651 72.6517 25.2087C66.6544 24.6935 61.0169 19.1127 61.0169 19.1127C61.0169 19.1127 57.8901 26.4384 56.7357 31.386C55.5813 36.3337 56.7357 43.137 56.7357 43.137C56.7357 43.137 63.3363 35.5093 73.6765 35.0969C74.0326 35.0825 74.3832 35.0757 74.726 35.0757C84.3334 35.0757 88.6698 40.4569 88.6698 40.4569C88.6698 40.4569 92.0822 38.3953 92.0822 28.0876C92.0822 17.7798 85.9813 13.9658 85.9813 13.9658Z" fill="#82889E"/>
<path d="M73.4719 30.2521C65.2138 31.7367 59.8705 36.262 56.2227 38.9106L56.7357 43.1367C56.7357 43.1367 63.3384 35.509 73.6786 35.0966C84.0188 34.6842 88.6719 40.4567 88.6719 40.4567C88.6719 40.4567 91.9907 38.4443 92.0802 28.4922C88.0862 28.5277 81.3204 28.8414 73.4719 30.2521Z" fill="#A2A5BC"/>
<path d="M91.5585 29.011C91.406 36.2307 89.4825 38.9422 88.7165 39.7397C87.4812 38.4577 83.0437 34.5634 74.7284 34.5634C74.3761 34.5634 74.0159 34.5706 73.6584 34.5849C65.1237 34.9252 59.1603 39.9853 57.1155 41.9971L56.7693 39.1472C57.0823 38.9176 57.4075 38.6761 57.7455 38.4246C61.3546 35.7398 66.2973 32.0631 73.5631 30.7569C80.9266 29.4333 87.3301 29.0715 91.5582 29.0113M92.0802 28.4927C88.0862 28.5282 81.3204 28.8419 73.4719 30.2526C65.2138 31.7371 59.8705 36.2625 56.2227 38.9111L56.7357 43.1372C56.7357 43.1372 63.3384 35.5095 73.6786 35.0971C74.0347 35.0827 74.3857 35.0759 74.7281 35.0759C84.3355 35.0759 88.6719 40.4572 88.6719 40.4572C88.6719 40.4572 91.9907 38.4447 92.0798 28.4927H92.0802Z" fill="#82889E"/>
<path d="M64.2942 60.4884C68.4155 60.4884 71.7565 57.1579 71.7565 53.0496C71.7565 48.9413 68.4155 45.6108 64.2942 45.6108C60.173 45.6108 56.832 48.9413 56.832 53.0496C56.832 57.1579 60.173 60.4884 64.2942 60.4884Z" fill="#222222"/>
<path d="M64.2942 58.0142C60.5967 58.0142 57.5353 55.3307 56.9434 51.8123C56.8756 52.2154 56.832 52.6268 56.832 53.0491C56.832 57.1573 60.1731 60.4879 64.2942 60.4879C68.4154 60.4879 71.7565 57.1573 71.7565 53.0491C71.7565 52.6268 71.7129 52.2154 71.6451 51.8123C71.0531 55.3304 67.9918 58.0142 64.2942 58.0142Z" fill="#383838"/>
<path d="M66.6115 52.5242C67.891 52.5242 68.9281 51.4902 68.9281 50.2148C68.9281 48.9394 67.891 47.9055 66.6115 47.9055C65.3321 47.9055 64.2949 48.9394 64.2949 50.2148C64.2949 51.4902 65.3321 52.5242 66.6115 52.5242Z" fill="white"/>
<path d="M36.4626 50.8922C37.7669 47.1602 36.8391 43.4453 34.3902 42.5947C31.9413 41.7442 28.8986 44.0801 27.5942 47.8121C26.2898 51.5442 27.2177 55.2591 29.6666 56.1096C32.1155 56.9602 35.1582 54.6243 36.4626 50.8922Z" fill="#222222"/>
<path d="M30.4525 53.8627C28.2552 53.0994 27.2883 50.0298 28.0537 46.7119C27.8854 47.0642 27.7287 47.4287 27.5947 47.8124C26.2902 51.5444 27.2181 55.2594 29.6673 56.1098C32.1165 56.9602 35.1591 54.6246 36.4632 50.8925C36.5972 50.5089 36.7021 50.1262 36.7899 49.7459C35.3209 52.8195 32.6499 54.6256 30.4529 53.8623L30.4525 53.8627Z" fill="#383838"/>
<path d="M35.6816 47.7338C36.0865 46.5752 35.7985 45.422 35.0383 45.1579C34.278 44.8939 33.3335 45.6191 32.9285 46.7777C32.5236 47.9363 32.8116 49.0895 33.5718 49.3536C34.3321 49.6176 35.2766 48.8924 35.6816 47.7338Z" fill="white"/>
<path d="M36.7891 54.8362V57.6194L38.9843 60.4884L44.1546 62.1547L49.1179 59.5778L51.8454 55.4546L50.0484 53.0496L43.5343 49.0637L39.9666 50.2148L36.7891 54.8362Z" fill="#222222"/>
<path d="M38.1683 59.3888L39.0094 60.4883L44.1794 62.1546L49.1426 59.5777L49.3932 59.1992C48.6025 57.2428 46.4075 55.8337 43.8174 55.8337C41.144 55.8337 38.8894 57.334 38.168 59.3891L38.1683 59.3888Z" fill="#A8354E"/>
<path d="M36.7891 53.5477C36.7891 53.5477 39.2428 47.3973 43.379 47.2559C46.2035 47.1592 48.8584 50.2492 48.8584 50.2492L52.6163 54.3379C52.6163 54.3379 49.8051 55.7835 47.9958 54.5122C46.1864 53.2409 44.9001 50.2151 42.7932 50.2151C39.967 50.2151 39.0878 52.3108 39.0878 52.3108L36.7891 55.1969V53.5477Z" fill="#FFB02F"/>
<path d="M43.6374 60.9782C37.2264 60.3598 36.7891 56.1849 36.7891 56.1849V58.9589C36.7891 58.9589 37.2264 63.1334 43.6374 63.7522C50.0484 64.3706 52.6163 54.3379 52.6163 54.3379L51.6042 54.3929C50.3302 57.309 47.7915 61.379 43.6374 60.9782Z" fill="#FFB02F"/>
<path d="M44.2073 64.1288C44.0123 64.1288 43.8146 64.1195 43.612 64.1001C40.2116 63.7721 38.4708 62.4385 37.6088 61.3777C36.6608 60.2109 36.5374 59.124 36.5326 59.0786L36.5312 53.6403C36.5312 53.6078 36.5374 53.5757 36.5494 53.5456C36.6522 53.2883 39.1142 47.2381 43.3693 47.0926C46.2796 46.9962 48.9413 50.0453 49.0527 50.1751L52.8047 54.2573C52.8637 54.3216 52.8856 54.4117 52.864 54.4955C52.7588 54.9007 50.2907 64.1288 44.2073 64.1288ZM37.0454 53.6908V59.0516C37.0618 59.1865 37.5537 63.0006 43.6613 63.5896C46.1997 63.8342 48.4296 62.3842 50.2852 59.2788C51.5266 57.2015 52.1754 55.0517 52.3304 54.4992L48.6681 50.5144C48.6366 50.4781 46.0606 47.5217 43.3868 47.604C39.6471 47.7322 37.2753 53.1442 37.0454 53.6908Z" fill="#DD8E1B"/>
</g>
<defs>
<clipPath id="clip0_4099_7406">
<rect width="94" height="82" fill="white"/>
</clipPath>
</defs>
</svg>
